<?xml version="1.0" encoding="utf-8" standalone="no"?>
<!DOCTYPE svg PUBLIC "-//W3C//DTD SVG 1.1//EN"
  "http://www.w3.org/Graphics/SVG/1.1/DTD/svg11.dtd">
<svg height="432pt" version="1.1" viewBox="0 0 720 432" width="720pt" xmlns="http://www.w3.org/2000/svg" xmlns:xlink="http://www.w3.org/1999/xlink">
 <metadata>
  <rdf:RDF xmlns:cc="http://creativecommons.org/ns#" xmlns:dc="http://purl.org/dc/elements/1.1/" xmlns:rdf="http://www.w3.org/1999/02/22-rdf-syntax-ns#">
   <cc:Work>
    <dc:type rdf:resource="http://purl.org/dc/dcmitype/StillImage"/>
    <dc:date>2025-04-08T08:04:39.513025</dc:date>
    <dc:format>image/svg+xml</dc:format>
    <dc:creator>
     <cc:Agent>
      <dc:title>Matplotlib v3.4.3, https://matplotlib.org/</dc:title>
     </cc:Agent>
    </dc:creator>
   </cc:Work>
  </rdf:RDF>
 </metadata>
 <defs>
  <style type="text/css">*{stroke-linecap:butt;stroke-linejoin:round;}</style>
 </defs>
 <g id="figure_1">
  <g id="patch_1">
   <path d="M 0 432 
L 720 432 
L 720 0 
L 0 0 
z
" style="fill:none;"/>
  </g>
  <g id="axes_1">
   <g id="patch_2">
    <path d="M 90 378 
L 648 378 
L 648 51.84 
L 90 51.84 
z
" style="fill:#ffffff;"/>
   </g>
   <g id="matplotlib.axis_1">
    <g id="xtick_1">
     <g id="line2d_1">
      <defs>
       <path d="M 0 0 
L 0 8 
" id="m3b7492e001" style="stroke:#000000;stroke-width:2;"/>
      </defs>
      <g>
       <use style="stroke:#000000;stroke-width:2;" x="115.363636" xlink:href="#m3b7492e001" y="378"/>
      </g>
     </g>
     <g id="text_1">
      <!-- 0 -->
      <g transform="translate(110.591761 400.897656)scale(0.15 -0.15)">
       <defs>
        <path d="M 2034 4250 
Q 1547 4250 1301 3770 
Q 1056 3291 1056 2328 
Q 1056 1369 1301 889 
Q 1547 409 2034 409 
Q 2525 409 2770 889 
Q 3016 1369 3016 2328 
Q 3016 3291 2770 3770 
Q 2525 4250 2034 4250 
z
M 2034 4750 
Q 2819 4750 3233 4129 
Q 3647 3509 3647 2328 
Q 3647 1150 3233 529 
Q 2819 -91 2034 -91 
Q 1250 -91 836 529 
Q 422 1150 422 2328 
Q 422 3509 836 4129 
Q 1250 4750 2034 4750 
z
" id="DejaVuSans-30" transform="scale(0.015625)"/>
       </defs>
       <use xlink:href="#DejaVuSans-30"/>
      </g>
     </g>
    </g>
    <g id="xtick_2">
     <g id="line2d_2">
      <g>
       <use style="stroke:#000000;stroke-width:2;" x="199.909091" xlink:href="#m3b7492e001" y="378"/>
      </g>
     </g>
     <g id="text_2">
      <!-- 10 -->
      <g transform="translate(190.365341 400.897656)scale(0.15 -0.15)">
       <defs>
        <path d="M 794 531 
L 1825 531 
L 1825 4091 
L 703 3866 
L 703 4441 
L 1819 4666 
L 2450 4666 
L 2450 531 
L 3481 531 
L 3481 0 
L 794 0 
L 794 531 
z
" id="DejaVuSans-31" transform="scale(0.015625)"/>
       </defs>
       <use xlink:href="#DejaVuSans-31"/>
       <use x="63.623047" xlink:href="#DejaVuSans-30"/>
      </g>
     </g>
    </g>
    <g id="xtick_3">
     <g id="line2d_3">
      <g>
       <use style="stroke:#000000;stroke-width:2;" x="284.454545" xlink:href="#m3b7492e001" y="378"/>
      </g>
     </g>
     <g id="text_3">
      <!-- 20 -->
      <g transform="translate(274.910795 400.897656)scale(0.15 -0.15)">
       <defs>
        <path d="M 1228 531 
L 3431 531 
L 3431 0 
L 469 0 
L 469 531 
Q 828 903 1448 1529 
Q 2069 2156 2228 2338 
Q 2531 2678 2651 2914 
Q 2772 3150 2772 3378 
Q 2772 3750 2511 3984 
Q 2250 4219 1831 4219 
Q 1534 4219 1204 4116 
Q 875 4013 500 3803 
L 500 4441 
Q 881 4594 1212 4672 
Q 1544 4750 1819 4750 
Q 2544 4750 2975 4387 
Q 3406 4025 3406 3419 
Q 3406 3131 3298 2873 
Q 3191 2616 2906 2266 
Q 2828 2175 2409 1742 
Q 1991 1309 1228 531 
z
" id="DejaVuSans-32" transform="scale(0.015625)"/>
       </defs>
       <use xlink:href="#DejaVuSans-32"/>
       <use x="63.623047" xlink:href="#DejaVuSans-30"/>
      </g>
     </g>
    </g>
    <g id="xtick_4">
     <g id="line2d_4">
      <g>
       <use style="stroke:#000000;stroke-width:2;" x="369" xlink:href="#m3b7492e001" y="378"/>
      </g>
     </g>
     <g id="text_4">
      <!-- 30 -->
      <g transform="translate(359.45625 400.897656)scale(0.15 -0.15)">
       <defs>
        <path d="M 2597 2516 
Q 3050 2419 3304 2112 
Q 3559 1806 3559 1356 
Q 3559 666 3084 287 
Q 2609 -91 1734 -91 
Q 1441 -91 1130 -33 
Q 819 25 488 141 
L 488 750 
Q 750 597 1062 519 
Q 1375 441 1716 441 
Q 2309 441 2620 675 
Q 2931 909 2931 1356 
Q 2931 1769 2642 2001 
Q 2353 2234 1838 2234 
L 1294 2234 
L 1294 2753 
L 1863 2753 
Q 2328 2753 2575 2939 
Q 2822 3125 2822 3475 
Q 2822 3834 2567 4026 
Q 2313 4219 1838 4219 
Q 1578 4219 1281 4162 
Q 984 4106 628 3988 
L 628 4550 
Q 988 4650 1302 4700 
Q 1616 4750 1894 4750 
Q 2613 4750 3031 4423 
Q 3450 4097 3450 3541 
Q 3450 3153 3228 2886 
Q 3006 2619 2597 2516 
z
" id="DejaVuSans-33" transform="scale(0.015625)"/>
       </defs>
       <use xlink:href="#DejaVuSans-33"/>
       <use x="63.623047" xlink:href="#DejaVuSans-30"/>
      </g>
     </g>
    </g>
    <g id="xtick_5">
     <g id="line2d_5">
      <g>
       <use style="stroke:#000000;stroke-width:2;" x="453.545455" xlink:href="#m3b7492e001" y="378"/>
      </g>
     </g>
     <g id="text_5">
      <!-- 40 -->
      <g transform="translate(444.001705 400.897656)scale(0.15 -0.15)">
       <defs>
        <path d="M 2419 4116 
L 825 1625 
L 2419 1625 
L 2419 4116 
z
M 2253 4666 
L 3047 4666 
L 3047 1625 
L 3713 1625 
L 3713 1100 
L 3047 1100 
L 3047 0 
L 2419 0 
L 2419 1100 
L 313 1100 
L 313 1709 
L 2253 4666 
z
" id="DejaVuSans-34" transform="scale(0.015625)"/>
       </defs>
       <use xlink:href="#DejaVuSans-34"/>
       <use x="63.623047" xlink:href="#DejaVuSans-30"/>
      </g>
     </g>
    </g>
    <g id="xtick_6">
     <g id="line2d_6">
      <g>
       <use style="stroke:#000000;stroke-width:2;" x="538.090909" xlink:href="#m3b7492e001" y="378"/>
      </g>
     </g>
     <g id="text_6">
      <!-- 50 -->
      <g transform="translate(528.547159 400.897656)scale(0.15 -0.15)">
       <defs>
        <path d="M 691 4666 
L 3169 4666 
L 3169 4134 
L 1269 4134 
L 1269 2991 
Q 1406 3038 1543 3061 
Q 1681 3084 1819 3084 
Q 2600 3084 3056 2656 
Q 3513 2228 3513 1497 
Q 3513 744 3044 326 
Q 2575 -91 1722 -91 
Q 1428 -91 1123 -41 
Q 819 9 494 109 
L 494 744 
Q 775 591 1075 516 
Q 1375 441 1709 441 
Q 2250 441 2565 725 
Q 2881 1009 2881 1497 
Q 2881 1984 2565 2268 
Q 2250 2553 1709 2553 
Q 1456 2553 1204 2497 
Q 953 2441 691 2322 
L 691 4666 
z
" id="DejaVuSans-35" transform="scale(0.015625)"/>
       </defs>
       <use xlink:href="#DejaVuSans-35"/>
       <use x="63.623047" xlink:href="#DejaVuSans-30"/>
      </g>
     </g>
    </g>
    <g id="xtick_7">
     <g id="line2d_7">
      <g>
       <use style="stroke:#000000;stroke-width:2;" x="622.636364" xlink:href="#m3b7492e001" y="378"/>
      </g>
     </g>
     <g id="text_7">
      <!-- 60 -->
      <g transform="translate(613.092614 400.897656)scale(0.15 -0.15)">
       <defs>
        <path d="M 2113 2584 
Q 1688 2584 1439 2293 
Q 1191 2003 1191 1497 
Q 1191 994 1439 701 
Q 1688 409 2113 409 
Q 2538 409 2786 701 
Q 3034 994 3034 1497 
Q 3034 2003 2786 2293 
Q 2538 2584 2113 2584 
z
M 3366 4563 
L 3366 3988 
Q 3128 4100 2886 4159 
Q 2644 4219 2406 4219 
Q 1781 4219 1451 3797 
Q 1122 3375 1075 2522 
Q 1259 2794 1537 2939 
Q 1816 3084 2150 3084 
Q 2853 3084 3261 2657 
Q 3669 2231 3669 1497 
Q 3669 778 3244 343 
Q 2819 -91 2113 -91 
Q 1303 -91 875 529 
Q 447 1150 447 2328 
Q 447 3434 972 4092 
Q 1497 4750 2381 4750 
Q 2619 4750 2861 4703 
Q 3103 4656 3366 4563 
z
" id="DejaVuSans-36" transform="scale(0.015625)"/>
       </defs>
       <use xlink:href="#DejaVuSans-36"/>
       <use x="63.623047" xlink:href="#DejaVuSans-30"/>
      </g>
     </g>
    </g>
    <g id="text_8">
     <!-- Timestamp (sec) -->
     <g transform="translate(293.709375 421.694375)scale(0.18 -0.18)">
      <defs>
       <path d="M -19 4666 
L 3928 4666 
L 3928 4134 
L 2272 4134 
L 2272 0 
L 1638 0 
L 1638 4134 
L -19 4134 
L -19 4666 
z
" id="DejaVuSans-54" transform="scale(0.015625)"/>
       <path d="M 603 3500 
L 1178 3500 
L 1178 0 
L 603 0 
L 603 3500 
z
M 603 4863 
L 1178 4863 
L 1178 4134 
L 603 4134 
L 603 4863 
z
" id="DejaVuSans-69" transform="scale(0.015625)"/>
       <path d="M 3328 2828 
Q 3544 3216 3844 3400 
Q 4144 3584 4550 3584 
Q 5097 3584 5394 3201 
Q 5691 2819 5691 2113 
L 5691 0 
L 5113 0 
L 5113 2094 
Q 5113 2597 4934 2840 
Q 4756 3084 4391 3084 
Q 3944 3084 3684 2787 
Q 3425 2491 3425 1978 
L 3425 0 
L 2847 0 
L 2847 2094 
Q 2847 2600 2669 2842 
Q 2491 3084 2119 3084 
Q 1678 3084 1418 2786 
Q 1159 2488 1159 1978 
L 1159 0 
L 581 0 
L 581 3500 
L 1159 3500 
L 1159 2956 
Q 1356 3278 1631 3431 
Q 1906 3584 2284 3584 
Q 2666 3584 2933 3390 
Q 3200 3197 3328 2828 
z
" id="DejaVuSans-6d" transform="scale(0.015625)"/>
       <path d="M 3597 1894 
L 3597 1613 
L 953 1613 
Q 991 1019 1311 708 
Q 1631 397 2203 397 
Q 2534 397 2845 478 
Q 3156 559 3463 722 
L 3463 178 
Q 3153 47 2828 -22 
Q 2503 -91 2169 -91 
Q 1331 -91 842 396 
Q 353 884 353 1716 
Q 353 2575 817 3079 
Q 1281 3584 2069 3584 
Q 2775 3584 3186 3129 
Q 3597 2675 3597 1894 
z
M 3022 2063 
Q 3016 2534 2758 2815 
Q 2500 3097 2075 3097 
Q 1594 3097 1305 2825 
Q 1016 2553 972 2059 
L 3022 2063 
z
" id="DejaVuSans-65" transform="scale(0.015625)"/>
       <path d="M 2834 3397 
L 2834 2853 
Q 2591 2978 2328 3040 
Q 2066 3103 1784 3103 
Q 1356 3103 1142 2972 
Q 928 2841 928 2578 
Q 928 2378 1081 2264 
Q 1234 2150 1697 2047 
L 1894 2003 
Q 2506 1872 2764 1633 
Q 3022 1394 3022 966 
Q 3022 478 2636 193 
Q 2250 -91 1575 -91 
Q 1294 -91 989 -36 
Q 684 19 347 128 
L 347 722 
Q 666 556 975 473 
Q 1284 391 1588 391 
Q 1994 391 2212 530 
Q 2431 669 2431 922 
Q 2431 1156 2273 1281 
Q 2116 1406 1581 1522 
L 1381 1569 
Q 847 1681 609 1914 
Q 372 2147 372 2553 
Q 372 3047 722 3315 
Q 1072 3584 1716 3584 
Q 2034 3584 2315 3537 
Q 2597 3491 2834 3397 
z
" id="DejaVuSans-73" transform="scale(0.015625)"/>
       <path d="M 1172 4494 
L 1172 3500 
L 2356 3500 
L 2356 3053 
L 1172 3053 
L 1172 1153 
Q 1172 725 1289 603 
Q 1406 481 1766 481 
L 2356 481 
L 2356 0 
L 1766 0 
Q 1100 0 847 248 
Q 594 497 594 1153 
L 594 3053 
L 172 3053 
L 172 3500 
L 594 3500 
L 594 4494 
L 1172 4494 
z
" id="DejaVuSans-74" transform="scale(0.015625)"/>
       <path d="M 2194 1759 
Q 1497 1759 1228 1600 
Q 959 1441 959 1056 
Q 959 750 1161 570 
Q 1363 391 1709 391 
Q 2188 391 2477 730 
Q 2766 1069 2766 1631 
L 2766 1759 
L 2194 1759 
z
M 3341 1997 
L 3341 0 
L 2766 0 
L 2766 531 
Q 2569 213 2275 61 
Q 1981 -91 1556 -91 
Q 1019 -91 701 211 
Q 384 513 384 1019 
Q 384 1609 779 1909 
Q 1175 2209 1959 2209 
L 2766 2209 
L 2766 2266 
Q 2766 2663 2505 2880 
Q 2244 3097 1772 3097 
Q 1472 3097 1187 3025 
Q 903 2953 641 2809 
L 641 3341 
Q 956 3463 1253 3523 
Q 1550 3584 1831 3584 
Q 2591 3584 2966 3190 
Q 3341 2797 3341 1997 
z
" id="DejaVuSans-61" transform="scale(0.015625)"/>
       <path d="M 1159 525 
L 1159 -1331 
L 581 -1331 
L 581 3500 
L 1159 3500 
L 1159 2969 
Q 1341 3281 1617 3432 
Q 1894 3584 2278 3584 
Q 2916 3584 3314 3078 
Q 3713 2572 3713 1747 
Q 3713 922 3314 415 
Q 2916 -91 2278 -91 
Q 1894 -91 1617 61 
Q 1341 213 1159 525 
z
M 3116 1747 
Q 3116 2381 2855 2742 
Q 2594 3103 2138 3103 
Q 1681 3103 1420 2742 
Q 1159 2381 1159 1747 
Q 1159 1113 1420 752 
Q 1681 391 2138 391 
Q 2594 391 2855 752 
Q 3116 1113 3116 1747 
z
" id="DejaVuSans-70" transform="scale(0.015625)"/>
       <path id="DejaVuSans-20" transform="scale(0.015625)"/>
       <path d="M 1984 4856 
Q 1566 4138 1362 3434 
Q 1159 2731 1159 2009 
Q 1159 1288 1364 580 
Q 1569 -128 1984 -844 
L 1484 -844 
Q 1016 -109 783 600 
Q 550 1309 550 2009 
Q 550 2706 781 3412 
Q 1013 4119 1484 4856 
L 1984 4856 
z
" id="DejaVuSans-28" transform="scale(0.015625)"/>
       <path d="M 3122 3366 
L 3122 2828 
Q 2878 2963 2633 3030 
Q 2388 3097 2138 3097 
Q 1578 3097 1268 2742 
Q 959 2388 959 1747 
Q 959 1106 1268 751 
Q 1578 397 2138 397 
Q 2388 397 2633 464 
Q 2878 531 3122 666 
L 3122 134 
Q 2881 22 2623 -34 
Q 2366 -91 2075 -91 
Q 1284 -91 818 406 
Q 353 903 353 1747 
Q 353 2603 823 3093 
Q 1294 3584 2113 3584 
Q 2378 3584 2631 3529 
Q 2884 3475 3122 3366 
z
" id="DejaVuSans-63" transform="scale(0.015625)"/>
       <path d="M 513 4856 
L 1013 4856 
Q 1481 4119 1714 3412 
Q 1947 2706 1947 2009 
Q 1947 1309 1714 600 
Q 1481 -109 1013 -844 
L 513 -844 
Q 928 -128 1133 580 
Q 1338 1288 1338 2009 
Q 1338 2731 1133 3434 
Q 928 4138 513 4856 
z
" id="DejaVuSans-29" transform="scale(0.015625)"/>
      </defs>
      <use xlink:href="#DejaVuSans-54"/>
      <use x="57.958984" xlink:href="#DejaVuSans-69"/>
      <use x="85.742188" xlink:href="#DejaVuSans-6d"/>
      <use x="183.154297" xlink:href="#DejaVuSans-65"/>
      <use x="244.677734" xlink:href="#DejaVuSans-73"/>
      <use x="296.777344" xlink:href="#DejaVuSans-74"/>
      <use x="335.986328" xlink:href="#DejaVuSans-61"/>
      <use x="397.265625" xlink:href="#DejaVuSans-6d"/>
      <use x="494.677734" xlink:href="#DejaVuSans-70"/>
      <use x="558.154297" xlink:href="#DejaVuSans-20"/>
      <use x="589.941406" xlink:href="#DejaVuSans-28"/>
      <use x="628.955078" xlink:href="#DejaVuSans-73"/>
      <use x="681.054688" xlink:href="#DejaVuSans-65"/>
      <use x="742.578125" xlink:href="#DejaVuSans-63"/>
      <use x="797.558594" xlink:href="#DejaVuSans-29"/>
     </g>
    </g>
   </g>
   <g id="matplotlib.axis_2">
    <g id="ytick_1">
     <g id="line2d_8">
      <path clip-path="url(#pe76687b278)" d="M 90 378 
L 648 378 
" style="fill:none;stroke:#d3d3d3;stroke-linecap:square;stroke-width:0.8;"/>
     </g>
     <g id="line2d_9">
      <defs>
       <path d="M 0 0 
L -8 0 
" id="m8ebb61c065" style="stroke:#000000;stroke-width:2;"/>
      </defs>
      <g>
       <use style="stroke:#000000;stroke-width:2;" x="90" xlink:href="#m8ebb61c065" y="378"/>
      </g>
     </g>
     <g id="text_9">
      <!-- 500 -->
      <g transform="translate(49.86875 383.698828)scale(0.15 -0.15)">
       <use xlink:href="#DejaVuSans-35"/>
       <use x="63.623047" xlink:href="#DejaVuSans-30"/>
       <use x="127.246094" xlink:href="#DejaVuSans-30"/>
      </g>
     </g>
    </g>
    <g id="ytick_2">
     <g id="line2d_10">
      <path clip-path="url(#pe76687b278)" d="M 90 312.768 
L 648 312.768 
" style="fill:none;stroke:#d3d3d3;stroke-linecap:square;stroke-width:0.8;"/>
     </g>
     <g id="line2d_11">
      <g>
       <use style="stroke:#000000;stroke-width:2;" x="90" xlink:href="#m8ebb61c065" y="312.768"/>
      </g>
     </g>
     <g id="text_10">
      <!-- 550 -->
      <g transform="translate(49.86875 318.466828)scale(0.15 -0.15)">
       <use xlink:href="#DejaVuSans-35"/>
       <use x="63.623047" xlink:href="#DejaVuSans-35"/>
       <use x="127.246094" xlink:href="#DejaVuSans-30"/>
      </g>
     </g>
    </g>
    <g id="ytick_3">
     <g id="line2d_12">
      <path clip-path="url(#pe76687b278)" d="M 90 247.536 
L 648 247.536 
" style="fill:none;stroke:#d3d3d3;stroke-linecap:square;stroke-width:0.8;"/>
     </g>
     <g id="line2d_13">
      <g>
       <use style="stroke:#000000;stroke-width:2;" x="90" xlink:href="#m8ebb61c065" y="247.536"/>
      </g>
     </g>
     <g id="text_11">
      <!-- 600 -->
      <g transform="translate(49.86875 253.234828)scale(0.15 -0.15)">
       <use xlink:href="#DejaVuSans-36"/>
       <use x="63.623047" xlink:href="#DejaVuSans-30"/>
       <use x="127.246094" xlink:href="#DejaVuSans-30"/>
      </g>
     </g>
    </g>
    <g id="ytick_4">
     <g id="line2d_14">
      <path clip-path="url(#pe76687b278)" d="M 90 182.304 
L 648 182.304 
" style="fill:none;stroke:#d3d3d3;stroke-linecap:square;stroke-width:0.8;"/>
     </g>
     <g id="line2d_15">
      <g>
       <use style="stroke:#000000;stroke-width:2;" x="90" xlink:href="#m8ebb61c065" y="182.304"/>
      </g>
     </g>
     <g id="text_12">
      <!-- 650 -->
      <g transform="translate(49.86875 188.002828)scale(0.15 -0.15)">
       <use xlink:href="#DejaVuSans-36"/>
       <use x="63.623047" xlink:href="#DejaVuSans-35"/>
       <use x="127.246094" xlink:href="#DejaVuSans-30"/>
      </g>
     </g>
    </g>
    <g id="ytick_5">
     <g id="line2d_16">
      <path clip-path="url(#pe76687b278)" d="M 90 117.072 
L 648 117.072 
" style="fill:none;stroke:#d3d3d3;stroke-linecap:square;stroke-width:0.8;"/>
     </g>
     <g id="line2d_17">
      <g>
       <use style="stroke:#000000;stroke-width:2;" x="90" xlink:href="#m8ebb61c065" y="117.072"/>
      </g>
     </g>
     <g id="text_13">
      <!-- 700 -->
      <g transform="translate(49.86875 122.770828)scale(0.15 -0.15)">
       <defs>
        <path d="M 525 4666 
L 3525 4666 
L 3525 4397 
L 1831 0 
L 1172 0 
L 2766 4134 
L 525 4134 
L 525 4666 
z
" id="DejaVuSans-37" transform="scale(0.015625)"/>
       </defs>
       <use xlink:href="#DejaVuSans-37"/>
       <use x="63.623047" xlink:href="#DejaVuSans-30"/>
       <use x="127.246094" xlink:href="#DejaVuSans-30"/>
      </g>
     </g>
    </g>
    <g id="ytick_6">
     <g id="line2d_18">
      <path clip-path="url(#pe76687b278)" d="M 90 51.84 
L 648 51.84 
" style="fill:none;stroke:#d3d3d3;stroke-linecap:square;stroke-width:0.8;"/>
     </g>
     <g id="line2d_19">
      <g>
       <use style="stroke:#000000;stroke-width:2;" x="90" xlink:href="#m8ebb61c065" y="51.84"/>
      </g>
     </g>
     <g id="text_14">
      <!-- 750 -->
      <g transform="translate(49.86875 57.538828)scale(0.15 -0.15)">
       <use xlink:href="#DejaVuSans-37"/>
       <use x="63.623047" xlink:href="#DejaVuSans-35"/>
       <use x="127.246094" xlink:href="#DejaVuSans-30"/>
      </g>
     </g>
    </g>
    <g id="text_15">
     <!-- Airflow rate (m$^3$/h) -->
     <g transform="translate(42.125313 298.71)rotate(-90)scale(0.18 -0.18)">
      <defs>
       <path d="M 2188 4044 
L 1331 1722 
L 3047 1722 
L 2188 4044 
z
M 1831 4666 
L 2547 4666 
L 4325 0 
L 3669 0 
L 3244 1197 
L 1141 1197 
L 716 0 
L 50 0 
L 1831 4666 
z
" id="DejaVuSans-41" transform="scale(0.015625)"/>
       <path d="M 2631 2963 
Q 2534 3019 2420 3045 
Q 2306 3072 2169 3072 
Q 1681 3072 1420 2755 
Q 1159 2438 1159 1844 
L 1159 0 
L 581 0 
L 581 3500 
L 1159 3500 
L 1159 2956 
Q 1341 3275 1631 3429 
Q 1922 3584 2338 3584 
Q 2397 3584 2469 3576 
Q 2541 3569 2628 3553 
L 2631 2963 
z
" id="DejaVuSans-72" transform="scale(0.015625)"/>
       <path d="M 2375 4863 
L 2375 4384 
L 1825 4384 
Q 1516 4384 1395 4259 
Q 1275 4134 1275 3809 
L 1275 3500 
L 2222 3500 
L 2222 3053 
L 1275 3053 
L 1275 0 
L 697 0 
L 697 3053 
L 147 3053 
L 147 3500 
L 697 3500 
L 697 3744 
Q 697 4328 969 4595 
Q 1241 4863 1831 4863 
L 2375 4863 
z
" id="DejaVuSans-66" transform="scale(0.015625)"/>
       <path d="M 603 4863 
L 1178 4863 
L 1178 0 
L 603 0 
L 603 4863 
z
" id="DejaVuSans-6c" transform="scale(0.015625)"/>
       <path d="M 1959 3097 
Q 1497 3097 1228 2736 
Q 959 2375 959 1747 
Q 959 1119 1226 758 
Q 1494 397 1959 397 
Q 2419 397 2687 759 
Q 2956 1122 2956 1747 
Q 2956 2369 2687 2733 
Q 2419 3097 1959 3097 
z
M 1959 3584 
Q 2709 3584 3137 3096 
Q 3566 2609 3566 1747 
Q 3566 888 3137 398 
Q 2709 -91 1959 -91 
Q 1206 -91 779 398 
Q 353 888 353 1747 
Q 353 2609 779 3096 
Q 1206 3584 1959 3584 
z
" id="DejaVuSans-6f" transform="scale(0.015625)"/>
       <path d="M 269 3500 
L 844 3500 
L 1563 769 
L 2278 3500 
L 2956 3500 
L 3675 769 
L 4391 3500 
L 4966 3500 
L 4050 0 
L 3372 0 
L 2619 2869 
L 1863 0 
L 1184 0 
L 269 3500 
z
" id="DejaVuSans-77" transform="scale(0.015625)"/>
       <path d="M 1625 4666 
L 2156 4666 
L 531 -594 
L 0 -594 
L 1625 4666 
z
" id="DejaVuSans-2f" transform="scale(0.015625)"/>
       <path d="M 3513 2113 
L 3513 0 
L 2938 0 
L 2938 2094 
Q 2938 2591 2744 2837 
Q 2550 3084 2163 3084 
Q 1697 3084 1428 2787 
Q 1159 2491 1159 1978 
L 1159 0 
L 581 0 
L 581 4863 
L 1159 4863 
L 1159 2956 
Q 1366 3272 1645 3428 
Q 1925 3584 2291 3584 
Q 2894 3584 3203 3211 
Q 3513 2838 3513 2113 
z
" id="DejaVuSans-68" transform="scale(0.015625)"/>
      </defs>
      <use transform="translate(0 0.765625)" xlink:href="#DejaVuSans-41"/>
      <use transform="translate(68.408203 0.765625)" xlink:href="#DejaVuSans-69"/>
      <use transform="translate(96.191406 0.765625)" xlink:href="#DejaVuSans-72"/>
      <use transform="translate(137.304688 0.765625)" xlink:href="#DejaVuSans-66"/>
      <use transform="translate(172.509766 0.765625)" xlink:href="#DejaVuSans-6c"/>
      <use transform="translate(200.292969 0.765625)" xlink:href="#DejaVuSans-6f"/>
      <use transform="translate(261.474609 0.765625)" xlink:href="#DejaVuSans-77"/>
      <use transform="translate(343.261719 0.765625)" xlink:href="#DejaVuSans-20"/>
      <use transform="translate(375.048828 0.765625)" xlink:href="#DejaVuSans-72"/>
      <use transform="translate(416.162109 0.765625)" xlink:href="#DejaVuSans-61"/>
      <use transform="translate(477.441406 0.765625)" xlink:href="#DejaVuSans-74"/>
      <use transform="translate(516.650391 0.765625)" xlink:href="#DejaVuSans-65"/>
      <use transform="translate(578.173828 0.765625)" xlink:href="#DejaVuSans-20"/>
      <use transform="translate(609.960938 0.765625)" xlink:href="#DejaVuSans-28"/>
      <use transform="translate(648.974609 0.765625)" xlink:href="#DejaVuSans-6d"/>
      <use transform="translate(747.34375 39.046875)scale(0.7)" xlink:href="#DejaVuSans-33"/>
      <use transform="translate(794.614258 0.765625)" xlink:href="#DejaVuSans-2f"/>
      <use transform="translate(828.305664 0.765625)" xlink:href="#DejaVuSans-68"/>
      <use transform="translate(891.68457 0.765625)" xlink:href="#DejaVuSans-29"/>
     </g>
    </g>
   </g>
   <g id="line2d_20">
    <path clip-path="url(#pe76687b278)" d="M 115.363636 309.926168 
L 123.818182 305.492975 
L 132.272727 301.059782 
L 140.727273 296.626589 
L 149.181818 292.193397 
L 157.636364 289.9768 
L 166.090909 289.9768 
L 174.545455 289.9768 
L 183 292.193397 
L 191.454545 292.193397 
L 199.909091 292.193397 
L 208.363636 289.9768 
L 216.818182 287.760204 
L 225.272727 285.543607 
L 233.727273 285.543607 
L 242.181818 283.327011 
L 250.636364 278.893818 
L 259.090909 276.677222 
L 267.545455 281.110415 
L 276 278.893818 
L 284.454545 281.110415 
L 292.909091 285.543607 
L 301.363636 292.193397 
L 309.818182 287.760204 
L 318.272727 285.543607 
L 326.727273 285.543607 
L 335.181818 283.327011 
L 343.636364 281.110415 
L 352.090909 283.327011 
L 360.545455 283.327011 
L 369 281.110415 
L 377.454545 274.460625 
L 385.909091 274.460625 
L 394.363636 270.027433 
L 402.818182 270.027433 
L 411.272727 272.244029 
L 419.727273 276.677222 
L 428.181818 278.893818 
L 436.636364 281.110415 
L 445.090909 281.110415 
L 453.545455 278.893818 
L 462 276.677222 
L 470.454545 274.460625 
L 478.909091 270.027433 
L 487.363636 265.59424 
L 495.818182 263.377643 
L 504.272727 258.944451 
L 512.727273 256.727854 
L 521.181818 258.944451 
L 529.636364 261.161047 
L 538.090909 263.377643 
L 546.545455 263.377643 
L 555 261.161047 
L 563.454545 258.944451 
L 571.909091 258.944451 
L 580.363636 258.944451 
L 588.818182 261.161047 
L 597.272727 261.161047 
L 605.727273 258.944451 
L 614.181818 261.161047 
" style="fill:none;stroke:#bdbdbd;stroke-linecap:square;stroke-width:1.5;"/>
   </g>
   <g id="line2d_21">
    <path clip-path="url(#pe76687b278)" d="M 115.363636 72.750352 
L 123.818182 72.750352 
L 132.272727 72.750352 
L 140.727273 74.966949 
L 149.181818 81.616738 
L 157.636364 86.049931 
L 166.090909 88.266527 
L 174.545455 90.483124 
L 183 90.483124 
L 191.454545 88.266527 
L 199.909091 88.266527 
L 208.363636 90.483124 
L 216.818182 92.69972 
L 225.272727 88.266527 
L 233.727273 90.483124 
L 242.181818 90.483124 
L 250.636364 83.833334 
L 259.090909 81.616738 
L 267.545455 86.049931 
L 276 81.616738 
L 284.454545 81.616738 
L 292.909091 88.266527 
L 301.363636 83.833334 
L 309.818182 81.616738 
L 318.272727 81.616738 
L 326.727273 81.616738 
L 335.181818 81.616738 
L 343.636364 83.833334 
L 352.090909 86.049931 
L 360.545455 83.833334 
L 369 86.049931 
L 377.454545 88.266527 
L 385.909091 90.483124 
L 394.363636 92.69972 
L 402.818182 94.916316 
L 411.272727 88.266527 
L 419.727273 88.266527 
L 428.181818 83.833334 
L 436.636364 81.616738 
L 445.090909 86.049931 
L 453.545455 90.483124 
L 462 92.69972 
L 470.454545 99.349509 
L 478.909091 99.349509 
L 487.363636 97.132913 
L 495.818182 94.916316 
L 504.272727 94.916316 
L 512.727273 92.69972 
L 521.181818 92.69972 
L 529.636364 92.69972 
L 538.090909 94.916316 
L 546.545455 97.132913 
L 555 103.782702 
L 563.454545 101.566106 
L 571.909091 99.349509 
L 580.363636 99.349509 
L 588.818182 94.916316 
L 597.272727 92.69972 
L 605.727273 92.69972 
L 614.181818 88.266527 
" style="fill:none;stroke:#3182bd;stroke-linecap:square;stroke-width:1.5;"/>
   </g>
   <g id="text_16">
    <!-- control point name: oh_airflow_10 -->
    <g transform="translate(215.804531 45.84)scale(0.18 -0.18)">
     <defs>
      <path d="M 3513 2113 
L 3513 0 
L 2938 0 
L 2938 2094 
Q 2938 2591 2744 2837 
Q 2550 3084 2163 3084 
Q 1697 3084 1428 2787 
Q 1159 2491 1159 1978 
L 1159 0 
L 581 0 
L 581 3500 
L 1159 3500 
L 1159 2956 
Q 1366 3272 1645 3428 
Q 1925 3584 2291 3584 
Q 2894 3584 3203 3211 
Q 3513 2838 3513 2113 
z
" id="DejaVuSans-6e" transform="scale(0.015625)"/>
      <path d="M 750 794 
L 1409 794 
L 1409 0 
L 750 0 
L 750 794 
z
M 750 3309 
L 1409 3309 
L 1409 2516 
L 750 2516 
L 750 3309 
z
" id="DejaVuSans-3a" transform="scale(0.015625)"/>
      <path d="M 3263 -1063 
L 3263 -1509 
L -63 -1509 
L -63 -1063 
L 3263 -1063 
z
" id="DejaVuSans-5f" transform="scale(0.015625)"/>
     </defs>
     <use xlink:href="#DejaVuSans-63"/>
     <use x="54.980469" xlink:href="#DejaVuSans-6f"/>
     <use x="116.162109" xlink:href="#DejaVuSans-6e"/>
     <use x="179.541016" xlink:href="#DejaVuSans-74"/>
     <use x="218.75" xlink:href="#DejaVuSans-72"/>
     <use x="257.613281" xlink:href="#DejaVuSans-6f"/>
     <use x="318.794922" xlink:href="#DejaVuSans-6c"/>
     <use x="346.578125" xlink:href="#DejaVuSans-20"/>
     <use x="378.365234" xlink:href="#DejaVuSans-70"/>
     <use x="441.841797" xlink:href="#DejaVuSans-6f"/>
     <use x="503.023438" xlink:href="#DejaVuSans-69"/>
     <use x="530.806641" xlink:href="#DejaVuSans-6e"/>
     <use x="594.185547" xlink:href="#DejaVuSans-74"/>
     <use x="633.394531" xlink:href="#DejaVuSans-20"/>
     <use x="665.181641" xlink:href="#DejaVuSans-6e"/>
     <use x="728.560547" xlink:href="#DejaVuSans-61"/>
     <use x="789.839844" xlink:href="#DejaVuSans-6d"/>
     <use x="887.251953" xlink:href="#DejaVuSans-65"/>
     <use x="948.775391" xlink:href="#DejaVuSans-3a"/>
     <use x="982.466797" xlink:href="#DejaVuSans-20"/>
     <use x="1014.253906" xlink:href="#DejaVuSans-6f"/>
     <use x="1075.435547" xlink:href="#DejaVuSans-68"/>
     <use x="1138.814453" xlink:href="#DejaVuSans-5f"/>
     <use x="1188.814453" xlink:href="#DejaVuSans-61"/>
     <use x="1250.09375" xlink:href="#DejaVuSans-69"/>
     <use x="1277.876953" xlink:href="#DejaVuSans-72"/>
     <use x="1318.990234" xlink:href="#DejaVuSans-66"/>
     <use x="1354.195312" xlink:href="#DejaVuSans-6c"/>
     <use x="1381.978516" xlink:href="#DejaVuSans-6f"/>
     <use x="1443.160156" xlink:href="#DejaVuSans-77"/>
     <use x="1524.947266" xlink:href="#DejaVuSans-5f"/>
     <use x="1574.947266" xlink:href="#DejaVuSans-31"/>
     <use x="1638.570312" xlink:href="#DejaVuSans-30"/>
    </g>
   </g>
  </g>
  <g id="axes_2">
   <g id="matplotlib.axis_3">
    <g id="ytick_7">
     <g id="line2d_22">
      <defs>
       <path d="M 0 0 
L 8 0 
" id="m4b6ae6f209" style="stroke:#000000;stroke-width:2;"/>
      </defs>
      <g>
       <use style="stroke:#000000;stroke-width:2;" x="648" xlink:href="#m4b6ae6f209" y="378"/>
      </g>
     </g>
     <g id="text_17">
      <!-- 42 -->
      <g transform="translate(659.5 383.698828)scale(0.15 -0.15)">
       <use xlink:href="#DejaVuSans-34"/>
       <use x="63.623047" xlink:href="#DejaVuSans-32"/>
      </g>
     </g>
    </g>
    <g id="ytick_8">
     <g id="line2d_23">
      <g>
       <use style="stroke:#000000;stroke-width:2;" x="648" xlink:href="#m4b6ae6f209" y="312.768"/>
      </g>
     </g>
     <g id="text_18">
      <!-- 44 -->
      <g transform="translate(659.5 318.466828)scale(0.15 -0.15)">
       <use xlink:href="#DejaVuSans-34"/>
       <use x="63.623047" xlink:href="#DejaVuSans-34"/>
      </g>
     </g>
    </g>
    <g id="ytick_9">
     <g id="line2d_24">
      <g>
       <use style="stroke:#000000;stroke-width:2;" x="648" xlink:href="#m4b6ae6f209" y="247.536"/>
      </g>
     </g>
     <g id="text_19">
      <!-- 46 -->
      <g transform="translate(659.5 253.234828)scale(0.15 -0.15)">
       <use xlink:href="#DejaVuSans-34"/>
       <use x="63.623047" xlink:href="#DejaVuSans-36"/>
      </g>
     </g>
    </g>
    <g id="ytick_10">
     <g id="line2d_25">
      <g>
       <use style="stroke:#000000;stroke-width:2;" x="648" xlink:href="#m4b6ae6f209" y="182.304"/>
      </g>
     </g>
     <g id="text_20">
      <!-- 48 -->
      <g transform="translate(659.5 188.002828)scale(0.15 -0.15)">
       <defs>
        <path d="M 2034 2216 
Q 1584 2216 1326 1975 
Q 1069 1734 1069 1313 
Q 1069 891 1326 650 
Q 1584 409 2034 409 
Q 2484 409 2743 651 
Q 3003 894 3003 1313 
Q 3003 1734 2745 1975 
Q 2488 2216 2034 2216 
z
M 1403 2484 
Q 997 2584 770 2862 
Q 544 3141 544 3541 
Q 544 4100 942 4425 
Q 1341 4750 2034 4750 
Q 2731 4750 3128 4425 
Q 3525 4100 3525 3541 
Q 3525 3141 3298 2862 
Q 3072 2584 2669 2484 
Q 3125 2378 3379 2068 
Q 3634 1759 3634 1313 
Q 3634 634 3220 271 
Q 2806 -91 2034 -91 
Q 1263 -91 848 271 
Q 434 634 434 1313 
Q 434 1759 690 2068 
Q 947 2378 1403 2484 
z
M 1172 3481 
Q 1172 3119 1398 2916 
Q 1625 2713 2034 2713 
Q 2441 2713 2670 2916 
Q 2900 3119 2900 3481 
Q 2900 3844 2670 4047 
Q 2441 4250 2034 4250 
Q 1625 4250 1398 4047 
Q 1172 3844 1172 3481 
z
" id="DejaVuSans-38" transform="scale(0.015625)"/>
       </defs>
       <use xlink:href="#DejaVuSans-34"/>
       <use x="63.623047" xlink:href="#DejaVuSans-38"/>
      </g>
     </g>
    </g>
    <g id="ytick_11">
     <g id="line2d_26">
      <g>
       <use style="stroke:#000000;stroke-width:2;" x="648" xlink:href="#m4b6ae6f209" y="117.072"/>
      </g>
     </g>
     <g id="text_21">
      <!-- 50 -->
      <g transform="translate(659.5 122.770828)scale(0.15 -0.15)">
       <use xlink:href="#DejaVuSans-35"/>
       <use x="63.623047" xlink:href="#DejaVuSans-30"/>
      </g>
     </g>
    </g>
    <g id="ytick_12">
     <g id="line2d_27">
      <g>
       <use style="stroke:#000000;stroke-width:2;" x="648" xlink:href="#m4b6ae6f209" y="51.84"/>
      </g>
     </g>
     <g id="text_22">
      <!-- 52 -->
      <g transform="translate(659.5 57.538828)scale(0.15 -0.15)">
       <use xlink:href="#DejaVuSans-35"/>
       <use x="63.623047" xlink:href="#DejaVuSans-32"/>
      </g>
     </g>
    </g>
    <g id="text_23">
     <!-- Supply fan VFD speed setpoint (%) -->
     <g transform="translate(696.264687 372.016406)rotate(-90)scale(0.18 -0.18)">
      <defs>
       <path d="M 3425 4513 
L 3425 3897 
Q 3066 4069 2747 4153 
Q 2428 4238 2131 4238 
Q 1616 4238 1336 4038 
Q 1056 3838 1056 3469 
Q 1056 3159 1242 3001 
Q 1428 2844 1947 2747 
L 2328 2669 
Q 3034 2534 3370 2195 
Q 3706 1856 3706 1288 
Q 3706 609 3251 259 
Q 2797 -91 1919 -91 
Q 1588 -91 1214 -16 
Q 841 59 441 206 
L 441 856 
Q 825 641 1194 531 
Q 1563 422 1919 422 
Q 2459 422 2753 634 
Q 3047 847 3047 1241 
Q 3047 1584 2836 1778 
Q 2625 1972 2144 2069 
L 1759 2144 
Q 1053 2284 737 2584 
Q 422 2884 422 3419 
Q 422 4038 858 4394 
Q 1294 4750 2059 4750 
Q 2388 4750 2728 4690 
Q 3069 4631 3425 4513 
z
" id="DejaVuSans-53" transform="scale(0.015625)"/>
       <path d="M 544 1381 
L 544 3500 
L 1119 3500 
L 1119 1403 
Q 1119 906 1312 657 
Q 1506 409 1894 409 
Q 2359 409 2629 706 
Q 2900 1003 2900 1516 
L 2900 3500 
L 3475 3500 
L 3475 0 
L 2900 0 
L 2900 538 
Q 2691 219 2414 64 
Q 2138 -91 1772 -91 
Q 1169 -91 856 284 
Q 544 659 544 1381 
z
M 1991 3584 
L 1991 3584 
z
" id="DejaVuSans-75" transform="scale(0.015625)"/>
       <path d="M 2059 -325 
Q 1816 -950 1584 -1140 
Q 1353 -1331 966 -1331 
L 506 -1331 
L 506 -850 
L 844 -850 
Q 1081 -850 1212 -737 
Q 1344 -625 1503 -206 
L 1606 56 
L 191 3500 
L 800 3500 
L 1894 763 
L 2988 3500 
L 3597 3500 
L 2059 -325 
z
" id="DejaVuSans-79" transform="scale(0.015625)"/>
       <path d="M 1831 0 
L 50 4666 
L 709 4666 
L 2188 738 
L 3669 4666 
L 4325 4666 
L 2547 0 
L 1831 0 
z
" id="DejaVuSans-56" transform="scale(0.015625)"/>
       <path d="M 628 4666 
L 3309 4666 
L 3309 4134 
L 1259 4134 
L 1259 2759 
L 3109 2759 
L 3109 2228 
L 1259 2228 
L 1259 0 
L 628 0 
L 628 4666 
z
" id="DejaVuSans-46" transform="scale(0.015625)"/>
       <path d="M 1259 4147 
L 1259 519 
L 2022 519 
Q 2988 519 3436 956 
Q 3884 1394 3884 2338 
Q 3884 3275 3436 3711 
Q 2988 4147 2022 4147 
L 1259 4147 
z
M 628 4666 
L 1925 4666 
Q 3281 4666 3915 4102 
Q 4550 3538 4550 2338 
Q 4550 1131 3912 565 
Q 3275 0 1925 0 
L 628 0 
L 628 4666 
z
" id="DejaVuSans-44" transform="scale(0.015625)"/>
       <path d="M 2906 2969 
L 2906 4863 
L 3481 4863 
L 3481 0 
L 2906 0 
L 2906 525 
Q 2725 213 2448 61 
Q 2172 -91 1784 -91 
Q 1150 -91 751 415 
Q 353 922 353 1747 
Q 353 2572 751 3078 
Q 1150 3584 1784 3584 
Q 2172 3584 2448 3432 
Q 2725 3281 2906 2969 
z
M 947 1747 
Q 947 1113 1208 752 
Q 1469 391 1925 391 
Q 2381 391 2643 752 
Q 2906 1113 2906 1747 
Q 2906 2381 2643 2742 
Q 2381 3103 1925 3103 
Q 1469 3103 1208 2742 
Q 947 2381 947 1747 
z
" id="DejaVuSans-64" transform="scale(0.015625)"/>
       <path d="M 4653 2053 
Q 4381 2053 4226 1822 
Q 4072 1591 4072 1178 
Q 4072 772 4226 539 
Q 4381 306 4653 306 
Q 4919 306 5073 539 
Q 5228 772 5228 1178 
Q 5228 1588 5073 1820 
Q 4919 2053 4653 2053 
z
M 4653 2450 
Q 5147 2450 5437 2106 
Q 5728 1763 5728 1178 
Q 5728 594 5436 251 
Q 5144 -91 4653 -91 
Q 4153 -91 3862 251 
Q 3572 594 3572 1178 
Q 3572 1766 3864 2108 
Q 4156 2450 4653 2450 
z
M 1428 4353 
Q 1159 4353 1004 4120 
Q 850 3888 850 3481 
Q 850 3069 1003 2837 
Q 1156 2606 1428 2606 
Q 1700 2606 1854 2837 
Q 2009 3069 2009 3481 
Q 2009 3884 1853 4118 
Q 1697 4353 1428 4353 
z
M 4250 4750 
L 4750 4750 
L 1831 -91 
L 1331 -91 
L 4250 4750 
z
M 1428 4750 
Q 1922 4750 2215 4408 
Q 2509 4066 2509 3481 
Q 2509 2891 2217 2550 
Q 1925 2209 1428 2209 
Q 931 2209 642 2551 
Q 353 2894 353 3481 
Q 353 4063 643 4406 
Q 934 4750 1428 4750 
z
" id="DejaVuSans-25" transform="scale(0.015625)"/>
      </defs>
      <use xlink:href="#DejaVuSans-53"/>
      <use x="63.476562" xlink:href="#DejaVuSans-75"/>
      <use x="126.855469" xlink:href="#DejaVuSans-70"/>
      <use x="190.332031" xlink:href="#DejaVuSans-70"/>
      <use x="253.808594" xlink:href="#DejaVuSans-6c"/>
      <use x="281.591797" xlink:href="#DejaVuSans-79"/>
      <use x="340.771484" xlink:href="#DejaVuSans-20"/>
      <use x="372.558594" xlink:href="#DejaVuSans-66"/>
      <use x="407.763672" xlink:href="#DejaVuSans-61"/>
      <use x="469.042969" xlink:href="#DejaVuSans-6e"/>
      <use x="532.421875" xlink:href="#DejaVuSans-20"/>
      <use x="564.208984" xlink:href="#DejaVuSans-56"/>
      <use x="632.617188" xlink:href="#DejaVuSans-46"/>
      <use x="690.136719" xlink:href="#DejaVuSans-44"/>
      <use x="767.138672" xlink:href="#DejaVuSans-20"/>
      <use x="798.925781" xlink:href="#DejaVuSans-73"/>
      <use x="851.025391" xlink:href="#DejaVuSans-70"/>
      <use x="914.501953" xlink:href="#DejaVuSans-65"/>
      <use x="976.025391" xlink:href="#DejaVuSans-65"/>
      <use x="1037.548828" xlink:href="#DejaVuSans-64"/>
      <use x="1101.025391" xlink:href="#DejaVuSans-20"/>
      <use x="1132.8125" xlink:href="#DejaVuSans-73"/>
      <use x="1184.912109" xlink:href="#DejaVuSans-65"/>
      <use x="1246.435547" xlink:href="#DejaVuSans-74"/>
      <use x="1285.644531" xlink:href="#DejaVuSans-70"/>
      <use x="1349.121094" xlink:href="#DejaVuSans-6f"/>
      <use x="1410.302734" xlink:href="#DejaVuSans-69"/>
      <use x="1438.085938" xlink:href="#DejaVuSans-6e"/>
      <use x="1501.464844" xlink:href="#DejaVuSans-74"/>
      <use x="1540.673828" xlink:href="#DejaVuSans-20"/>
      <use x="1572.460938" xlink:href="#DejaVuSans-28"/>
      <use x="1611.474609" xlink:href="#DejaVuSans-25"/>
      <use x="1706.494141" xlink:href="#DejaVuSans-29"/>
     </g>
    </g>
   </g>
   <g id="LineCollection_1">
    <path clip-path="url(#pe76687b278)" d="M 115.363636 363.174545 
L 622.636364 363.174545 
" style="fill:none;stroke:#bdbdbd;stroke-dasharray:14.8,6.4;stroke-dashoffset:0;stroke-width:4;"/>
   </g>
   <g id="LineCollection_2">
    <path clip-path="url(#pe76687b278)" d="M 115.363636 66.665455 
L 622.636364 66.665455 
" style="fill:none;stroke:#3182bd;stroke-dasharray:14.8,6.4;stroke-dashoffset:0;stroke-width:4;"/>
   </g>
  </g>
  <g id="text_24">
   <!-- Ventilation rate measured at overhead diffuser -->
   <g transform="translate(101.945156 25.356562)scale(0.22 -0.22)">
    <defs>
     <path d="M 191 3500 
L 800 3500 
L 1894 563 
L 2988 3500 
L 3597 3500 
L 2284 0 
L 1503 0 
L 191 3500 
z
" id="DejaVuSans-76" transform="scale(0.015625)"/>
    </defs>
    <use xlink:href="#DejaVuSans-56"/>
    <use x="60.658203" xlink:href="#DejaVuSans-65"/>
    <use x="122.181641" xlink:href="#DejaVuSans-6e"/>
    <use x="185.560547" xlink:href="#DejaVuSans-74"/>
    <use x="224.769531" xlink:href="#DejaVuSans-69"/>
    <use x="252.552734" xlink:href="#DejaVuSans-6c"/>
    <use x="280.335938" xlink:href="#DejaVuSans-61"/>
    <use x="341.615234" xlink:href="#DejaVuSans-74"/>
    <use x="380.824219" xlink:href="#DejaVuSans-69"/>
    <use x="408.607422" xlink:href="#DejaVuSans-6f"/>
    <use x="469.789062" xlink:href="#DejaVuSans-6e"/>
    <use x="533.167969" xlink:href="#DejaVuSans-20"/>
    <use x="564.955078" xlink:href="#DejaVuSans-72"/>
    <use x="606.068359" xlink:href="#DejaVuSans-61"/>
    <use x="667.347656" xlink:href="#DejaVuSans-74"/>
    <use x="706.556641" xlink:href="#DejaVuSans-65"/>
    <use x="768.080078" xlink:href="#DejaVuSans-20"/>
    <use x="799.867188" xlink:href="#DejaVuSans-6d"/>
    <use x="897.279297" xlink:href="#DejaVuSans-65"/>
    <use x="958.802734" xlink:href="#DejaVuSans-61"/>
    <use x="1020.082031" xlink:href="#DejaVuSans-73"/>
    <use x="1072.181641" xlink:href="#DejaVuSans-75"/>
    <use x="1135.560547" xlink:href="#DejaVuSans-72"/>
    <use x="1174.423828" xlink:href="#DejaVuSans-65"/>
    <use x="1235.947266" xlink:href="#DejaVuSans-64"/>
    <use x="1299.423828" xlink:href="#DejaVuSans-20"/>
    <use x="1331.210938" xlink:href="#DejaVuSans-61"/>
    <use x="1392.490234" xlink:href="#DejaVuSans-74"/>
    <use x="1431.699219" xlink:href="#DejaVuSans-20"/>
    <use x="1463.486328" xlink:href="#DejaVuSans-6f"/>
    <use x="1524.667969" xlink:href="#DejaVuSans-76"/>
    <use x="1583.847656" xlink:href="#DejaVuSans-65"/>
    <use x="1645.371094" xlink:href="#DejaVuSans-72"/>
    <use x="1684.734375" xlink:href="#DejaVuSans-68"/>
    <use x="1748.113281" xlink:href="#DejaVuSans-65"/>
    <use x="1809.636719" xlink:href="#DejaVuSans-61"/>
    <use x="1870.916016" xlink:href="#DejaVuSans-64"/>
    <use x="1934.392578" xlink:href="#DejaVuSans-20"/>
    <use x="1966.179688" xlink:href="#DejaVuSans-64"/>
    <use x="2029.65625" xlink:href="#DejaVuSans-69"/>
    <use x="2057.439453" xlink:href="#DejaVuSans-66"/>
    <use x="2092.644531" xlink:href="#DejaVuSans-66"/>
    <use x="2127.849609" xlink:href="#DejaVuSans-75"/>
    <use x="2191.228516" xlink:href="#DejaVuSans-73"/>
    <use x="2243.328125" xlink:href="#DejaVuSans-65"/>
    <use x="2304.851562" xlink:href="#DejaVuSans-72"/>
   </g>
  </g>
  <g id="legend_1">
   <g id="line2d_28">
    <path style="fill:none;stroke:#bdbdbd;stroke-linecap:square;stroke-width:1.5;"/>
   </g>
   <g id="line2d_29"/>
   <g id="text_25">
    <!-- Baseline measurement -->
    <g transform="translate(30.823125 451.918125)scale(0.12 -0.12)">
     <defs>
      <path d="M 1259 2228 
L 1259 519 
L 2272 519 
Q 2781 519 3026 730 
Q 3272 941 3272 1375 
Q 3272 1813 3026 2020 
Q 2781 2228 2272 2228 
L 1259 2228 
z
M 1259 4147 
L 1259 2741 
L 2194 2741 
Q 2656 2741 2882 2914 
Q 3109 3088 3109 3444 
Q 3109 3797 2882 3972 
Q 2656 4147 2194 4147 
L 1259 4147 
z
M 628 4666 
L 2241 4666 
Q 2963 4666 3353 4366 
Q 3744 4066 3744 3513 
Q 3744 3084 3544 2831 
Q 3344 2578 2956 2516 
Q 3422 2416 3680 2098 
Q 3938 1781 3938 1306 
Q 3938 681 3513 340 
Q 3088 0 2303 0 
L 628 0 
L 628 4666 
z
" id="DejaVuSans-42" transform="scale(0.015625)"/>
     </defs>
     <use xlink:href="#DejaVuSans-42"/>
     <use x="68.603516" xlink:href="#DejaVuSans-61"/>
     <use x="129.882812" xlink:href="#DejaVuSans-73"/>
     <use x="181.982422" xlink:href="#DejaVuSans-65"/>
     <use x="243.505859" xlink:href="#DejaVuSans-6c"/>
     <use x="271.289062" xlink:href="#DejaVuSans-69"/>
     <use x="299.072266" xlink:href="#DejaVuSans-6e"/>
     <use x="362.451172" xlink:href="#DejaVuSans-65"/>
     <use x="423.974609" xlink:href="#DejaVuSans-20"/>
     <use x="455.761719" xlink:href="#DejaVuSans-6d"/>
     <use x="553.173828" xlink:href="#DejaVuSans-65"/>
     <use x="614.697266" xlink:href="#DejaVuSans-61"/>
     <use x="675.976562" xlink:href="#DejaVuSans-73"/>
     <use x="728.076172" xlink:href="#DejaVuSans-75"/>
     <use x="791.455078" xlink:href="#DejaVuSans-72"/>
     <use x="830.318359" xlink:href="#DejaVuSans-65"/>
     <use x="891.841797" xlink:href="#DejaVuSans-6d"/>
     <use x="989.253906" xlink:href="#DejaVuSans-65"/>
     <use x="1050.777344" xlink:href="#DejaVuSans-6e"/>
     <use x="1114.15625" xlink:href="#DejaVuSans-74"/>
    </g>
    <!-- (before setpoint change) -->
    <g transform="translate(30.823125 465.3555)scale(0.12 -0.12)">
     <defs>
      <path d="M 3116 1747 
Q 3116 2381 2855 2742 
Q 2594 3103 2138 3103 
Q 1681 3103 1420 2742 
Q 1159 2381 1159 1747 
Q 1159 1113 1420 752 
Q 1681 391 2138 391 
Q 2594 391 2855 752 
Q 3116 1113 3116 1747 
z
M 1159 2969 
Q 1341 3281 1617 3432 
Q 1894 3584 2278 3584 
Q 2916 3584 3314 3078 
Q 3713 2572 3713 1747 
Q 3713 922 3314 415 
Q 2916 -91 2278 -91 
Q 1894 -91 1617 61 
Q 1341 213 1159 525 
L 1159 0 
L 581 0 
L 581 4863 
L 1159 4863 
L 1159 2969 
z
" id="DejaVuSans-62" transform="scale(0.015625)"/>
      <path d="M 2906 1791 
Q 2906 2416 2648 2759 
Q 2391 3103 1925 3103 
Q 1463 3103 1205 2759 
Q 947 2416 947 1791 
Q 947 1169 1205 825 
Q 1463 481 1925 481 
Q 2391 481 2648 825 
Q 2906 1169 2906 1791 
z
M 3481 434 
Q 3481 -459 3084 -895 
Q 2688 -1331 1869 -1331 
Q 1566 -1331 1297 -1286 
Q 1028 -1241 775 -1147 
L 775 -588 
Q 1028 -725 1275 -790 
Q 1522 -856 1778 -856 
Q 2344 -856 2625 -561 
Q 2906 -266 2906 331 
L 2906 616 
Q 2728 306 2450 153 
Q 2172 0 1784 0 
Q 1141 0 747 490 
Q 353 981 353 1791 
Q 353 2603 747 3093 
Q 1141 3584 1784 3584 
Q 2172 3584 2450 3431 
Q 2728 3278 2906 2969 
L 2906 3500 
L 3481 3500 
L 3481 434 
z
" id="DejaVuSans-67" transform="scale(0.015625)"/>
     </defs>
     <use xlink:href="#DejaVuSans-28"/>
     <use x="39.013672" xlink:href="#DejaVuSans-62"/>
     <use x="102.490234" xlink:href="#DejaVuSans-65"/>
     <use x="164.013672" xlink:href="#DejaVuSans-66"/>
     <use x="199.21875" xlink:href="#DejaVuSans-6f"/>
     <use x="260.400391" xlink:href="#DejaVuSans-72"/>
     <use x="299.263672" xlink:href="#DejaVuSans-65"/>
     <use x="360.787109" xlink:href="#DejaVuSans-20"/>
     <use x="392.574219" xlink:href="#DejaVuSans-73"/>
     <use x="444.673828" xlink:href="#DejaVuSans-65"/>
     <use x="506.197266" xlink:href="#DejaVuSans-74"/>
     <use x="545.40625" xlink:href="#DejaVuSans-70"/>
     <use x="608.882812" xlink:href="#DejaVuSans-6f"/>
     <use x="670.064453" xlink:href="#DejaVuSans-69"/>
     <use x="697.847656" xlink:href="#DejaVuSans-6e"/>
     <use x="761.226562" xlink:href="#DejaVuSans-74"/>
     <use x="800.435547" xlink:href="#DejaVuSans-20"/>
     <use x="832.222656" xlink:href="#DejaVuSans-63"/>
     <use x="887.203125" xlink:href="#DejaVuSans-68"/>
     <use x="950.582031" xlink:href="#DejaVuSans-61"/>
     <use x="1011.861328" xlink:href="#DejaVuSans-6e"/>
     <use x="1075.240234" xlink:href="#DejaVuSans-67"/>
     <use x="1138.716797" xlink:href="#DejaVuSans-65"/>
     <use x="1200.240234" xlink:href="#DejaVuSans-29"/>
    </g>
   </g>
   <g id="line2d_30">
    <path style="fill:none;stroke:#3182bd;stroke-linecap:square;stroke-width:1.5;"/>
   </g>
   <g id="line2d_31"/>
   <g id="text_26">
    <!-- Performance test measurement -->
    <g transform="translate(237.136875 451.918125)scale(0.12 -0.12)">
     <defs>
      <path d="M 1259 4147 
L 1259 2394 
L 2053 2394 
Q 2494 2394 2734 2622 
Q 2975 2850 2975 3272 
Q 2975 3691 2734 3919 
Q 2494 4147 2053 4147 
L 1259 4147 
z
M 628 4666 
L 2053 4666 
Q 2838 4666 3239 4311 
Q 3641 3956 3641 3272 
Q 3641 2581 3239 2228 
Q 2838 1875 2053 1875 
L 1259 1875 
L 1259 0 
L 628 0 
L 628 4666 
z
" id="DejaVuSans-50" transform="scale(0.015625)"/>
     </defs>
     <use xlink:href="#DejaVuSans-50"/>
     <use x="56.677734" xlink:href="#DejaVuSans-65"/>
     <use x="118.201172" xlink:href="#DejaVuSans-72"/>
     <use x="159.314453" xlink:href="#DejaVuSans-66"/>
     <use x="194.519531" xlink:href="#DejaVuSans-6f"/>
     <use x="255.701172" xlink:href="#DejaVuSans-72"/>
     <use x="295.064453" xlink:href="#DejaVuSans-6d"/>
     <use x="392.476562" xlink:href="#DejaVuSans-61"/>
     <use x="453.755859" xlink:href="#DejaVuSans-6e"/>
     <use x="517.134766" xlink:href="#DejaVuSans-63"/>
     <use x="572.115234" xlink:href="#DejaVuSans-65"/>
     <use x="633.638672" xlink:href="#DejaVuSans-20"/>
     <use x="665.425781" xlink:href="#DejaVuSans-74"/>
     <use x="704.634766" xlink:href="#DejaVuSans-65"/>
     <use x="766.158203" xlink:href="#DejaVuSans-73"/>
     <use x="818.257812" xlink:href="#DejaVuSans-74"/>
     <use x="857.466797" xlink:href="#DejaVuSans-20"/>
     <use x="889.253906" xlink:href="#DejaVuSans-6d"/>
     <use x="986.666016" xlink:href="#DejaVuSans-65"/>
     <use x="1048.189453" xlink:href="#DejaVuSans-61"/>
     <use x="1109.46875" xlink:href="#DejaVuSans-73"/>
     <use x="1161.568359" xlink:href="#DejaVuSans-75"/>
     <use x="1224.947266" xlink:href="#DejaVuSans-72"/>
     <use x="1263.810547" xlink:href="#DejaVuSans-65"/>
     <use x="1325.333984" xlink:href="#DejaVuSans-6d"/>
     <use x="1422.746094" xlink:href="#DejaVuSans-65"/>
     <use x="1484.269531" xlink:href="#DejaVuSans-6e"/>
     <use x="1547.648438" xlink:href="#DejaVuSans-74"/>
    </g>
    <!-- (after setpoint reset) -->
    <g transform="translate(237.136875 465.3555)scale(0.12 -0.12)">
     <use xlink:href="#DejaVuSans-28"/>
     <use x="39.013672" xlink:href="#DejaVuSans-61"/>
     <use x="100.292969" xlink:href="#DejaVuSans-66"/>
     <use x="133.748047" xlink:href="#DejaVuSans-74"/>
     <use x="172.957031" xlink:href="#DejaVuSans-65"/>
     <use x="234.480469" xlink:href="#DejaVuSans-72"/>
     <use x="275.59375" xlink:href="#DejaVuSans-20"/>
     <use x="307.380859" xlink:href="#DejaVuSans-73"/>
     <use x="359.480469" xlink:href="#DejaVuSans-65"/>
     <use x="421.003906" xlink:href="#DejaVuSans-74"/>
     <use x="460.212891" xlink:href="#DejaVuSans-70"/>
     <use x="523.689453" xlink:href="#DejaVuSans-6f"/>
     <use x="584.871094" xlink:href="#DejaVuSans-69"/>
     <use x="612.654297" xlink:href="#DejaVuSans-6e"/>
     <use x="676.033203" xlink:href="#DejaVuSans-74"/>
     <use x="715.242188" xlink:href="#DejaVuSans-20"/>
     <use x="747.029297" xlink:href="#DejaVuSans-72"/>
     <use x="785.892578" xlink:href="#DejaVuSans-65"/>
     <use x="847.416016" xlink:href="#DejaVuSans-73"/>
     <use x="899.515625" xlink:href="#DejaVuSans-65"/>
     <use x="961.039062" xlink:href="#DejaVuSans-74"/>
     <use x="1000.248047" xlink:href="#DejaVuSans-29"/>
    </g>
   </g>
   <g id="line2d_32">
    <path style="fill:none;stroke:#bdbdbd;stroke-dasharray:14.8,6.4;stroke-dashoffset:0;stroke-width:4;"/>
   </g>
   <g id="text_27">
    <!-- Baseline setpoint -->
    <g transform="translate(485.15625 459.884625)scale(0.12 -0.12)">
     <use xlink:href="#DejaVuSans-42"/>
     <use x="68.603516" xlink:href="#DejaVuSans-61"/>
     <use x="129.882812" xlink:href="#DejaVuSans-73"/>
     <use x="181.982422" xlink:href="#DejaVuSans-65"/>
     <use x="243.505859" xlink:href="#DejaVuSans-6c"/>
     <use x="271.289062" xlink:href="#DejaVuSans-69"/>
     <use x="299.072266" xlink:href="#DejaVuSans-6e"/>
     <use x="362.451172" xlink:href="#DejaVuSans-65"/>
     <use x="423.974609" xlink:href="#DejaVuSans-20"/>
     <use x="455.761719" xlink:href="#DejaVuSans-73"/>
     <use x="507.861328" xlink:href="#DejaVuSans-65"/>
     <use x="569.384766" xlink:href="#DejaVuSans-74"/>
     <use x="608.59375" xlink:href="#DejaVuSans-70"/>
     <use x="672.070312" xlink:href="#DejaVuSans-6f"/>
     <use x="733.251953" xlink:href="#DejaVuSans-69"/>
     <use x="761.035156" xlink:href="#DejaVuSans-6e"/>
     <use x="824.414062" xlink:href="#DejaVuSans-74"/>
    </g>
   </g>
   <g id="line2d_33">
    <path style="fill:none;stroke:#3182bd;stroke-dasharray:14.8,6.4;stroke-dashoffset:0;stroke-width:4;"/>
   </g>
   <g id="text_28">
    <!-- Test setpoint -->
    <g transform="translate(646.39125 459.884625)scale(0.12 -0.12)">
     <use xlink:href="#DejaVuSans-54"/>
     <use x="44.083984" xlink:href="#DejaVuSans-65"/>
     <use x="105.607422" xlink:href="#DejaVuSans-73"/>
     <use x="157.707031" xlink:href="#DejaVuSans-74"/>
     <use x="196.916016" xlink:href="#DejaVuSans-20"/>
     <use x="228.703125" xlink:href="#DejaVuSans-73"/>
     <use x="280.802734" xlink:href="#DejaVuSans-65"/>
     <use x="342.326172" xlink:href="#DejaVuSans-74"/>
     <use x="381.535156" xlink:href="#DejaVuSans-70"/>
     <use x="445.011719" xlink:href="#DejaVuSans-6f"/>
     <use x="506.193359" xlink:href="#DejaVuSans-69"/>
     <use x="533.976562" xlink:href="#DejaVuSans-6e"/>
     <use x="597.355469" xlink:href="#DejaVuSans-74"/>
    </g>
   </g>
  </g>
 </g>
 <defs>
  <clipPath id="pe76687b278">
   <rect height="326.16" width="558" x="90" y="51.84"/>
  </clipPath>
 </defs>
</svg>
